<svg width="26" height="26" viewBox="0 0 26 26" fill="none" xmlns="http://www.w3.org/2000/svg">
<g clip-path="url(#clip0_747_59)">
<path d="M25.5886 16.1645C23.8524 23.1289 16.7986 27.3673 9.83345 25.6306C2.87119 23.8943 -1.36718 16.8401 0.36983 9.87634C2.10531 2.91122 9.15907 -1.32746 16.1221 0.40878C23.0868 2.14502 27.3249 9.19999 25.5884 16.1647L25.5886 16.1645H25.5886Z" fill="#F7931A"/>
<path d="M18.7277 11.1479C18.9865 9.41784 17.6694 8.4879 15.8683 7.86753L16.4526 5.52407L15.026 5.16861L14.4573 7.45037C14.0822 7.35683 13.6971 7.2687 13.3143 7.18133L13.8872 4.88451L12.4616 4.52905L11.877 6.87175C11.5666 6.80109 11.2618 6.73126 10.9661 6.65767L10.9678 6.6503L9.00053 6.15905L8.62105 7.68268C8.62105 7.68268 9.67942 7.92529 9.65712 7.94022C10.2348 8.0844 10.3393 8.4668 10.3219 8.7699L9.65636 11.4397C9.69614 11.4498 9.74773 11.4644 9.80467 11.4872C9.75707 11.4754 9.70643 11.4625 9.65388 11.4499L8.72101 15.1899C8.65041 15.3654 8.47122 15.6288 8.06734 15.5288C8.08164 15.5495 7.03051 15.27 7.03051 15.27L6.32227 16.9029L8.17867 17.3657C8.52402 17.4523 8.86245 17.5429 9.19574 17.6281L8.60542 19.9985L10.0303 20.3539L10.6149 18.0088C11.0042 18.1144 11.3819 18.2119 11.7517 18.3038L11.1691 20.6379L12.5957 20.9934L13.186 18.6275C15.6185 19.0879 17.4476 18.9022 18.2175 16.702C18.8378 14.9306 18.1866 13.9088 16.9068 13.2425C17.839 13.0275 18.541 12.4145 18.7282 11.1481L18.7278 11.1477L18.7277 11.1479ZM15.4684 15.7182C15.0276 17.4897 12.045 16.5321 11.078 16.292L11.8614 13.1517C12.8283 13.3931 15.9292 13.8708 15.4685 15.7182H15.4684ZM15.9096 11.1222C15.5074 12.7335 13.025 11.9149 12.2197 11.7142L12.93 8.8661C13.7352 9.06683 16.3285 9.44148 15.9097 11.1222H15.9096Z" fill="white"/>
</g>
<defs>
<clipPath id="clip0_747_59">
<rect width="26" height="26" fill="white"/>
</clipPath>
</defs>
</svg>
