<svg width="26" height="26" viewBox="0 0 26 26" fill="none" xmlns="http://www.w3.org/2000/svg">
<circle cx="13" cy="13" r="13" fill="white"/>
<g clip-path="url(#clip0_747_47)">
<path d="M12.9974 2.73691L12.8597 3.20468V16.777L12.9974 16.9144L19.2974 13.1904L12.9974 2.73691Z" fill="#343434"/>
<path d="M12.996 2.73691L6.6958 13.1904L12.996 16.9144V10.3268V2.73691Z" fill="#8C8C8C"/>
<path d="M12.9975 18.1077L12.9199 18.2024V23.037L12.9975 23.2636L19.3013 14.3857L12.9975 18.1077Z" fill="#3C3C3B"/>
<path d="M12.996 23.2636V18.1077L6.6958 14.3857L12.996 23.2636Z" fill="#8C8C8C"/>
<path d="M12.9951 16.9142L19.2951 13.1902L12.9951 10.3265V16.9142Z" fill="#141414"/>
<path d="M6.6958 13.1902L12.996 16.9142V10.3265L6.6958 13.1902Z" fill="#393939"/>
</g>
<defs>
<clipPath id="clip0_747_47">
<rect width="20.5263" height="20.5263" fill="white" transform="translate(2.73685 2.73691)"/>
</clipPath>
</defs>
</svg>
