<svg width="26" height="26" viewBox="0 0 26 26" fill="none" xmlns="http://www.w3.org/2000/svg">
<g clip-path="url(#clip0_747_64)">
<path d="M13.0001 24.593C19.4027 24.593 24.593 19.4027 24.593 13.0001C24.593 6.59743 19.4027 1.40707 13.0001 1.40707C6.59743 1.40707 1.40707 6.59743 1.40707 13.0001C1.40707 19.4027 6.59743 24.593 13.0001 24.593Z" fill="#345D9D"/>
<path d="M13 0C10.4288 0 7.9154 0.762437 5.77756 2.19089C3.63972 3.61935 1.97348 5.64968 0.989541 8.02511C0.00560214 10.4006 -0.251841 13.0144 0.249767 15.5362C0.751375 18.0579 1.9895 20.3743 3.80759 22.1924C5.62567 24.0105 7.94205 25.2486 10.4638 25.7502C12.9856 26.2518 15.5994 25.9944 17.9749 25.0104C20.3503 24.0265 22.3806 22.3602 23.8091 20.2224C25.2375 18.0846 26 15.5712 26 13V13C26.0049 11.2978 25.6746 9.61124 25.0278 8.03669C24.3809 6.46213 23.4303 5.0304 22.2302 3.82324C21.03 2.61608 19.6038 1.65712 18.0331 1.00113C16.4623 0.345138 14.7777 0.00495312 13.0755 0H13ZM13.2203 13.4407L11.8668 18.0048H19.1065C19.1545 18.0032 19.2023 18.0109 19.2472 18.0278C19.2922 18.0446 19.3334 18.0701 19.3685 18.1028C19.4035 18.1356 19.4318 18.1749 19.4517 18.2186C19.4715 18.2623 19.4826 18.3094 19.4842 18.3574V18.477L18.8547 20.6489C18.8269 20.7516 18.7651 20.8418 18.6793 20.9048C18.5935 20.9677 18.4888 20.9996 18.3825 20.9952H7.30264L9.15978 14.6683L7.0823 15.2978L7.55446 13.8499L9.63194 13.2203L12.2445 4.34383C12.2733 4.24169 12.3354 4.15212 12.421 4.08937C12.5065 4.02662 12.6106 3.99431 12.7167 3.99758H15.5181C15.5661 3.9959 15.6139 4.00368 15.6589 4.0205C15.7038 4.03731 15.745 4.06281 15.7801 4.09555C15.8152 4.1283 15.8434 4.16763 15.8633 4.21131C15.8832 4.25499 15.8942 4.30216 15.8959 4.35012V4.46973L13.6925 11.9613L15.77 11.3317L15.3293 12.8426L13.2203 13.4407Z" fill="white"/>
</g>
<defs>
<clipPath id="clip0_747_64">
<rect width="26" height="26" fill="white"/>
</clipPath>
</defs>
</svg>
