<svg width="16" height="16" viewBox="0 0 16 16" fill="none" xmlns="http://www.w3.org/2000/svg">
<path fill-rule="evenodd" clip-rule="evenodd" d="M8 0.5C3.86457 0.5 0.5 3.86457 0.5 8C0.5 12.1354 3.86457 15.5 8 15.5C12.1354 15.5 15.5 12.1354 15.5 8C15.5 3.86457 12.1354 0.5 8 0.5ZM8.00002 2.68744C9.98152 2.68744 11.5938 4.29968 11.5938 6.2812C11.5938 8.26273 9.98152 9.87494 8.00002 9.87494C6.01853 9.87494 4.40626 8.2627 4.40626 6.28117C4.40626 4.29965 6.01853 2.68744 8.00002 2.68744ZM8 14.2501C5.9578 14.2501 4.14687 13.2611 3.00567 11.7418C4.25595 11.1402 6.04144 10.5001 8 10.5001C9.9587 10.5001 11.7443 11.1403 12.9944 11.7417C11.8532 13.2611 10.0422 14.2501 8 14.2501Z" fill="white"/>
</svg>
