<svg width="18" height="18" viewBox="0 0 18 18" fill="none" xmlns="http://www.w3.org/2000/svg">
<path fill-rule="evenodd" clip-rule="evenodd" d="M6.27486 10.8794H14.0701C14.2631 10.8794 14.4324 10.7517 14.4847 10.5663L16.2106 4.52574C16.2477 4.39552 16.2223 4.25563 16.1406 4.14743C16.0588 4.03956 15.9317 3.97585 15.7959 3.97585H5.27879L4.97036 2.58798C4.92654 2.39034 4.75125 2.25 4.54901 2.25H1.93146C1.69303 2.25 1.5 2.44303 1.5 2.68146C1.5 2.92 1.69303 3.11293 1.93146 3.11293H4.20271L5.76081 10.1242C5.30238 10.3235 4.98047 10.7798 4.98047 11.3108C4.98047 12.0245 5.56115 12.6052 6.27486 12.6052H7.1379C6.42407 12.6052 5.84339 13.1859 5.84339 13.8996C5.84339 14.6134 6.42407 15.194 7.1379 15.194C7.85161 15.194 8.43229 14.6134 8.43229 13.8996C8.43229 13.1859 7.85161 12.6052 7.1379 12.6052H13.2071C12.4934 12.6052 11.9128 13.1859 11.9128 13.8996C11.9128 14.6134 12.4934 15.194 13.2071 15.194C13.921 15.194 14.5015 14.6134 14.5015 13.8996C14.5015 13.1859 13.921 12.6052 13.2071 12.6052H14.0701C14.3086 12.6052 14.5015 12.4123 14.5015 12.1738C14.5015 11.9353 14.3086 11.7423 14.0701 11.7423H6.27486C6.03722 11.7423 5.84339 11.5489 5.84339 11.3108C5.84339 11.0727 6.03722 10.8794 6.27486 10.8794Z" fill="white"/>
</svg>
