<svg width="16" height="14" viewBox="0 0 16 14" fill="none" xmlns="http://www.w3.org/2000/svg">
<path fill-rule="evenodd" clip-rule="evenodd" d="M5.27486 8.87937H13.0701C13.2631 8.87937 13.4324 8.75173 13.4847 8.56634L15.2106 2.52574C15.2477 2.39552 15.2223 2.25563 15.1406 2.14743C15.0588 2.03956 14.9317 1.97585 14.7959 1.97585H4.27879L3.97036 0.587979C3.92654 0.390338 3.75125 0.25 3.54901 0.25H0.931463C0.693035 0.25 0.5 0.443035 0.5 0.681463C0.5 0.920004 0.693035 1.11293 0.931463 1.11293H3.20271L4.76081 8.1242C4.30238 8.32353 3.98047 8.77982 3.98047 9.31084C3.98047 10.0245 4.56115 10.6052 5.27486 10.6052H6.1379C5.42407 10.6052 4.84339 11.1859 4.84339 11.8996C4.84339 12.6134 5.42407 13.194 6.1379 13.194C6.85161 13.194 7.43229 12.6134 7.43229 11.8996C7.43229 11.1859 6.85161 10.6052 6.1379 10.6052H12.2071C11.4934 10.6052 10.9128 11.1859 10.9128 11.8996C10.9128 12.6134 11.4934 13.194 12.2071 13.194C12.921 13.194 13.5015 12.6134 13.5015 11.8996C13.5015 11.1859 12.921 10.6052 12.2071 10.6052H13.0701C13.3086 10.6052 13.5015 10.4123 13.5015 10.1738C13.5015 9.93533 13.3086 9.7423 13.0701 9.7423H5.27486C5.03722 9.7423 4.84339 9.54893 4.84339 9.31084C4.84339 9.07275 5.03722 8.87937 5.27486 8.87937Z" fill="white"/>
</svg>
