<svg width="14" height="18" viewBox="0 0 14 18" fill="none" xmlns="http://www.w3.org/2000/svg">
<path d="M7.00005 0.60714C10.8465 0.60714 13.9643 3.725 13.9643 7.57142C13.9643 10.5143 11.8965 13.7214 7.81434 17.2271C7.58736 17.4221 7.29795 17.5292 6.99872 17.529C6.69948 17.5287 6.41027 17.4211 6.18362 17.2257L5.91362 16.9914C2.0122 13.5771 0.0357666 10.4486 0.0357666 7.57142C0.0357666 3.725 3.15362 0.60714 7.00005 0.60714ZM7.00005 4.89285C6.28965 4.89285 5.60835 5.17506 5.10602 5.67739C4.60369 6.17972 4.32148 6.86102 4.32148 7.57142C4.32148 8.28183 4.60369 8.96313 5.10602 9.46546C5.60835 9.96779 6.28965 10.25 7.00005 10.25C7.71045 10.25 8.39176 9.96779 8.89409 9.46546C9.39642 8.96313 9.67863 8.28183 9.67863 7.57142C9.67863 6.86102 9.39642 6.17972 8.89409 5.67739C8.39176 5.17506 7.71045 4.89285 7.00005 4.89285Z" fill="#329DCC"/>
</svg>
