<svg width="40" height="40" viewBox="0 0 40 40" fill="none" xmlns="http://www.w3.org/2000/svg">
<path d="M25.5656 15.7938C25.75 15.7938 25.9344 15.8 26.1156 15.8094C25.3531 11.7875 21.1687 8.7125 16.1187 8.7125C10.5312 8.7125 6 12.4813 6 17.1313C6 19.6656 7.3625 21.95 9.49687 23.4938C9.58491 23.5559 9.6567 23.6383 9.70619 23.734C9.75569 23.8298 9.78143 23.936 9.78125 24.0438C9.78125 24.1188 9.76562 24.1875 9.74687 24.2594C9.575 24.8938 9.30313 25.9094 9.29063 25.9563C9.26875 26.0375 9.2375 26.1188 9.2375 26.2031C9.2375 26.3875 9.3875 26.5406 9.575 26.5406C9.64687 26.5406 9.70625 26.5125 9.76875 26.4781L11.9844 25.2C12.15 25.1031 12.3281 25.0438 12.5219 25.0438C12.6219 25.0438 12.7219 25.0594 12.8188 25.0875C13.8531 25.3844 14.9688 25.55 16.1219 25.55C16.3094 25.55 16.4938 25.5469 16.6781 25.5375C16.4563 24.8813 16.3375 24.1906 16.3375 23.475C16.3375 19.2313 20.4687 15.7938 25.5656 15.7938ZM19.4937 13.0906C20.2375 13.0906 20.8438 13.6938 20.8438 14.4375C20.8438 15.1813 20.2406 15.7844 19.4937 15.7844C18.75 15.7844 18.1438 15.1813 18.1438 14.4375C18.1438 13.6938 18.75 13.0906 19.4937 13.0906ZM12.7469 15.7844C12.0031 15.7844 11.3969 15.1813 11.3969 14.4375C11.3969 13.6938 12 13.0906 12.7469 13.0906C13.4937 13.0906 14.0969 13.6938 14.0969 14.4375C14.0969 15.1813 13.4906 15.7844 12.7469 15.7844ZM31.0844 28.7719C32.8625 27.4844 33.9969 25.5844 33.9969 23.4688C33.9969 19.5938 30.2219 16.4531 25.5625 16.4531C20.9062 16.4531 17.1281 19.5938 17.1281 23.4688C17.1281 27.3438 20.9031 30.4844 25.5625 30.4844C26.525 30.4844 27.4562 30.3469 28.3156 30.1C28.3969 30.075 28.4781 30.0625 28.5625 30.0625C28.725 30.0625 28.8719 30.1125 29.0094 30.1906L30.8563 31.2531C30.9094 31.2844 30.9594 31.3063 31.0187 31.3063C31.0558 31.3066 31.0925 31.2995 31.1269 31.2856C31.1612 31.2716 31.1924 31.2511 31.2188 31.225C31.2448 31.1987 31.2654 31.1674 31.2793 31.1331C31.2933 31.0988 31.3003 31.062 31.3 31.025C31.3 30.9563 31.2719 30.8875 31.2563 30.8188C31.2469 30.7813 31.0187 29.9344 30.875 29.4031C30.8594 29.3438 30.8469 29.2844 30.8469 29.225C30.85 29.0406 30.9438 28.875 31.0844 28.7719ZM22.7563 22.35C22.1344 22.35 21.6313 21.8469 21.6313 21.2281C21.6313 20.6094 22.1344 20.1063 22.7563 20.1063C23.3781 20.1063 23.8813 20.6094 23.8813 21.2281C23.8813 21.8469 23.375 22.35 22.7563 22.35ZM28.3781 22.35C27.7562 22.35 27.2531 21.8469 27.2531 21.2281C27.2531 20.6094 27.7562 20.1063 28.3781 20.1063C29 20.1063 29.5031 20.6094 29.5031 21.2281C29.5016 21.5258 29.3825 21.8107 29.1718 22.0209C28.961 22.231 28.6758 22.3493 28.3781 22.35Z" fill="#329DCC"/>
</svg>
