<svg width="14" height="10" viewBox="0 0 14 10" fill="none" xmlns="http://www.w3.org/2000/svg">
<g clip-path="url(#clip0_1_1110)">
<path d="M6.67375 5L0.00708008 1.6276V0.833333C0.00708008 0.598958 0.0895453 0.401476 0.254476 0.240885C0.419406 0.0802951 0.614719 0 0.840413 0H12.5071C12.7328 0 12.9281 0.0802951 13.093 0.240885C13.2579 0.401476 13.3404 0.598958 13.3404 0.833333V1.6276L6.67375 5ZM6.25708 5.83333H7.09041L13.3404 2.59115V9.16667C13.3404 9.39236 13.2579 9.58767 13.093 9.7526C12.9281 9.91753 12.7328 10 12.5071 10H0.840413C0.614719 10 0.419406 9.91753 0.254476 9.7526C0.0895453 9.58767 0.00708008 9.39236 0.00708008 9.16667V2.59115L6.25708 5.83333Z" fill="#329DCC"/>
</g>
<defs>
<clipPath id="clip0_1_1110">
<rect width="13.3475" height="10" fill="white"/>
</clipPath>
</defs>
</svg>
