<svg width="24" height="24" viewBox="0 0 24 24" fill="none" xmlns="http://www.w3.org/2000/svg">
<path d="M12 3.60714C15.8464 3.60714 18.9643 6.72499 18.9643 10.5714C18.9643 13.5143 16.8964 16.7214 12.8143 20.2271C12.5873 20.4221 12.2979 20.5292 11.9987 20.529C11.6994 20.5287 11.4102 20.4211 11.1836 20.2257L10.9136 19.9914C7.01213 16.5771 5.03571 13.4486 5.03571 10.5714C5.03571 6.72499 8.15356 3.60714 12 3.60714ZM12 7.89285C11.2896 7.89285 10.6083 8.17506 10.106 8.67738C9.60363 9.17971 9.32142 9.86102 9.32142 10.5714C9.32142 11.2818 9.60363 11.9631 10.106 12.4655C10.6083 12.9678 11.2896 13.25 12 13.25C12.7104 13.25 13.3917 12.9678 13.894 12.4655C14.3964 11.9631 14.6786 11.2818 14.6786 10.5714C14.6786 9.86102 14.3964 9.17971 13.894 8.67738C13.3917 8.17506 12.7104 7.89285 12 7.89285Z" fill="#329DCC"/>
</svg>
