<svg width="16" height="16" viewBox="0 0 16 16" fill="none" xmlns="http://www.w3.org/2000/svg">
<path d="M10.4357 11.0825L11.6957 9.82249C11.8654 9.65489 12.0801 9.54017 12.3137 9.49224C12.5474 9.44431 12.7899 9.46524 13.0119 9.5525L14.5475 10.1656C14.7719 10.2567 14.9642 10.4121 15.1004 10.6123C15.2365 10.8125 15.3103 11.0485 15.3125 11.2906V14.1031C15.3112 14.2678 15.2766 14.4305 15.2108 14.5815C15.1449 14.7324 15.0492 14.8685 14.9294 14.9815C14.8096 15.0945 14.6681 15.1821 14.5136 15.2389C14.359 15.2958 14.1945 15.3209 14.03 15.3125C3.26942 14.6431 1.09817 5.53062 0.687545 2.04312C0.668483 1.87186 0.685899 1.6985 0.738647 1.53445C0.791395 1.37041 0.878278 1.21939 0.993582 1.09133C1.10889 0.963275 1.25 0.861083 1.40763 0.791478C1.56527 0.721874 1.73585 0.686435 1.90817 0.687492H4.62504C4.86749 0.68821 5.10417 0.761443 5.30465 0.897772C5.50514 1.0341 5.66025 1.22729 5.75004 1.45249L6.36317 2.98812C6.45331 3.20922 6.47631 3.45198 6.42929 3.68607C6.38227 3.92017 6.26732 4.13522 6.09879 4.30437L4.83879 5.56437C4.83879 5.56437 5.56442 10.475 10.4357 11.0825Z" fill="#329DCC"/>
</svg>
