<svg width="24" height="24" viewBox="0 0 24 24" fill="none" xmlns="http://www.w3.org/2000/svg">
<path d="M14.4356 15.0825L15.6956 13.8225C15.8653 13.6549 16.0801 13.5402 16.3137 13.4923C16.5474 13.4443 16.7899 13.4653 17.0119 13.5525L18.5475 14.1656C18.7718 14.2567 18.9642 14.4121 19.1003 14.6123C19.2365 14.8125 19.3103 15.0485 19.3125 15.2906V18.1031C19.3112 18.2678 19.2766 18.4305 19.2107 18.5815C19.1449 18.7325 19.0492 18.8685 18.9293 18.9815C18.8095 19.0945 18.6681 19.1821 18.5135 19.239C18.359 19.2958 18.1945 19.3209 18.03 19.3125C7.26939 18.6431 5.09814 9.53063 4.68751 6.04313C4.66845 5.87187 4.68587 5.69852 4.73862 5.53447C4.79136 5.37042 4.87825 5.2194 4.99355 5.09135C5.10886 4.96329 5.24997 4.8611 5.4076 4.79149C5.56524 4.72189 5.73582 4.68645 5.90814 4.68751H8.62501C8.86746 4.68823 9.10414 4.76146 9.30462 4.89779C9.50511 5.03412 9.66022 5.22731 9.75001 5.45251L10.3631 6.98813C10.4533 7.20923 10.4763 7.452 10.4293 7.68609C10.3822 7.92019 10.2673 8.13524 10.0988 8.30438L8.83876 9.56438C8.83876 9.56438 9.56439 14.475 14.4356 15.0825Z" fill="#329DCC"/>
</svg>
