<svg width="28" height="28" viewBox="0 0 28 28" fill="none" xmlns="http://www.w3.org/2000/svg">
<path d="M24.4213 15.645C24.5095 15.1011 24.5534 14.551 24.5525 14C24.5525 11.2013 23.4408 8.51724 21.4618 6.53826C19.4828 4.55928 16.7987 3.4475 14 3.4475C13.4491 3.44665 12.8989 3.49054 12.355 3.57875C11.1354 2.84813 9.70653 2.54594 8.29547 2.72016C6.88442 2.89439 5.57201 3.53504 4.56667 4.54038C3.56132 5.54573 2.92067 6.85813 2.74645 8.26919C2.57222 9.68025 2.87442 11.1091 3.60504 12.3288C3.5066 12.8805 3.45392 13.4395 3.44754 14C3.44754 16.7987 4.55931 19.4828 6.53829 21.4617C8.51727 23.4407 11.2013 24.5525 14 24.5525C14.551 24.5534 15.1012 24.5095 15.645 24.4213C16.8647 25.1519 18.2935 25.4541 19.7046 25.2798C21.1157 25.1056 22.4281 24.465 23.4334 23.4596C24.4388 22.4543 25.0794 21.1419 25.2536 19.7308C25.4279 18.3198 25.1257 16.8909 24.395 15.6713L24.4213 15.645ZM19.0138 18.795C18.5199 19.4778 17.8393 20.0035 17.0538 20.3088C16.0846 20.6891 15.0497 20.8735 14.0088 20.8513C12.7972 20.902 11.5919 20.6525 10.5 20.125C9.86346 19.7828 9.31756 19.2939 8.90754 18.6988C8.53195 18.1903 8.31848 17.5804 8.29504 16.9488C8.29411 16.7849 8.32706 16.6225 8.3918 16.472C8.45655 16.3214 8.5517 16.1858 8.67129 16.0738C8.93631 15.8482 9.27747 15.7324 9.62504 15.75C9.91549 15.7445 10.1982 15.8439 10.4213 16.03C10.6655 16.2584 10.8541 16.5398 10.9725 16.8525C11.1243 17.2179 11.3181 17.5644 11.55 17.885C11.7812 18.181 12.0817 18.4154 12.425 18.5675C12.8914 18.7676 13.3968 18.8603 13.9038 18.8388C14.6259 18.8737 15.3412 18.6842 15.9513 18.2963C16.1854 18.1591 16.3801 17.9638 16.5166 17.7292C16.653 17.4947 16.7266 17.2288 16.73 16.9575C16.7376 16.7675 16.7049 16.5781 16.634 16.4016C16.5631 16.2252 16.4557 16.0657 16.3188 15.9338C16.0072 15.6467 15.6326 15.4369 15.225 15.3213C14.77 15.1725 14.1663 15.0238 13.405 14.8575C12.5308 14.654 11.6781 14.3668 10.8588 14C10.2141 13.7358 9.64565 13.3147 9.20504 12.775C8.78713 12.2187 8.57111 11.5367 8.59254 10.8413C8.58547 10.1343 8.8132 9.4449 9.24004 8.88125C9.72757 8.27553 10.3768 7.82044 11.1125 7.56875C12.0428 7.25978 13.0203 7.11759 14 7.14875C14.7666 7.13519 15.5308 7.23846 16.2663 7.455C16.8435 7.62639 17.3857 7.89896 17.8675 8.26C18.2467 8.54482 18.5626 8.90537 18.795 9.31875C18.9842 9.65269 19.0865 10.0288 19.0925 10.4125C19.0914 10.5761 19.0576 10.7378 18.9929 10.8881C18.9283 11.0383 18.8342 11.1742 18.7163 11.2875C18.5972 11.4165 18.4523 11.519 18.291 11.5884C18.1297 11.6577 17.9556 11.6924 17.78 11.69C17.4986 11.7119 17.2195 11.6241 17.0013 11.445C16.7717 11.2238 16.5796 10.9667 16.4325 10.6838C16.2158 10.2378 15.9019 9.8461 15.5138 9.5375C15.0045 9.22001 14.405 9.0786 13.8075 9.135C13.1942 9.10915 12.5865 9.26108 12.0575 9.5725C11.8654 9.67511 11.7031 9.82578 11.5866 10.0098C11.47 10.1938 11.4032 10.4049 11.3925 10.6225C11.3856 10.8602 11.4631 11.0927 11.6113 11.2788C11.7858 11.481 12.0003 11.6448 12.2413 11.76C12.4979 11.8928 12.7677 11.9983 13.0463 12.075C13.3263 12.1538 13.7813 12.2675 14.42 12.4163C15.225 12.5913 15.9425 12.7838 16.5988 12.9938C17.1858 13.1726 17.7452 13.4317 18.2613 13.7638C18.7114 14.0484 19.0818 14.4429 19.3375 14.91C19.5976 15.4428 19.718 16.0329 19.6875 16.625C19.6954 17.401 19.4598 18.1599 19.0138 18.795V18.795Z" fill="#329DCC"/>
</svg>
