<svg width="32" height="32" viewBox="0 0 32 32" fill="none" xmlns="http://www.w3.org/2000/svg">
<path d="M21.5656 11.7938C21.75 11.7938 21.9344 11.8 22.1156 11.8094C21.3531 7.7875 17.1687 4.7125 12.1187 4.7125C6.53125 4.7125 2 8.48125 2 13.1313C2 15.6656 3.3625 17.95 5.49687 19.4938C5.58491 19.5559 5.6567 19.6383 5.70619 19.734C5.75569 19.8298 5.78143 19.936 5.78125 20.0438C5.78125 20.1188 5.76562 20.1875 5.74687 20.2594C5.575 20.8938 5.30313 21.9094 5.29063 21.9563C5.26875 22.0375 5.2375 22.1188 5.2375 22.2031C5.2375 22.3875 5.3875 22.5406 5.575 22.5406C5.64687 22.5406 5.70625 22.5125 5.76875 22.4781L7.98438 21.2C8.15 21.1031 8.32813 21.0438 8.52188 21.0438C8.62188 21.0438 8.72188 21.0594 8.81875 21.0875C9.85313 21.3844 10.9687 21.55 12.1219 21.55C12.3094 21.55 12.4938 21.5469 12.6781 21.5375C12.4563 20.8813 12.3375 20.1906 12.3375 19.475C12.3375 15.2313 16.4687 11.7938 21.5656 11.7938V11.7938ZM15.4937 9.09063C16.2375 9.09063 16.8438 9.69375 16.8438 10.4375C16.8438 11.1813 16.2406 11.7844 15.4937 11.7844C14.75 11.7844 14.1438 11.1813 14.1438 10.4375C14.1438 9.69375 14.75 9.09063 15.4937 9.09063ZM8.74687 11.7844C8.00312 11.7844 7.39687 11.1813 7.39687 10.4375C7.39687 9.69375 8 9.09063 8.74687 9.09063C9.49375 9.09063 10.0969 9.69375 10.0969 10.4375C10.0969 11.1813 9.49062 11.7844 8.74687 11.7844ZM27.0844 24.7719C28.8625 23.4844 29.9969 21.5844 29.9969 19.4688C29.9969 15.5938 26.2219 12.4531 21.5625 12.4531C16.9062 12.4531 13.1281 15.5938 13.1281 19.4688C13.1281 23.3438 16.9031 26.4844 21.5625 26.4844C22.525 26.4844 23.4562 26.3469 24.3156 26.1C24.3969 26.075 24.4781 26.0625 24.5625 26.0625C24.725 26.0625 24.8719 26.1125 25.0094 26.1906L26.8563 27.2531C26.9094 27.2844 26.9594 27.3063 27.0187 27.3063C27.0558 27.3066 27.0925 27.2995 27.1269 27.2856C27.1612 27.2716 27.1924 27.2511 27.2188 27.225C27.2448 27.1987 27.2654 27.1674 27.2793 27.1331C27.2933 27.0988 27.3003 27.062 27.3 27.025C27.3 26.9563 27.2719 26.8875 27.2563 26.8188C27.2469 26.7813 27.0187 25.9344 26.875 25.4031C26.8594 25.3438 26.8469 25.2844 26.8469 25.225C26.85 25.0406 26.9438 24.875 27.0844 24.7719V24.7719ZM18.7563 18.35C18.1344 18.35 17.6313 17.8469 17.6313 17.2281C17.6313 16.6094 18.1344 16.1063 18.7563 16.1063C19.3781 16.1063 19.8813 16.6094 19.8813 17.2281C19.8813 17.8469 19.375 18.35 18.7563 18.35ZM24.3781 18.35C23.7562 18.35 23.2531 17.8469 23.2531 17.2281C23.2531 16.6094 23.7562 16.1063 24.3781 16.1063C25 16.1063 25.5031 16.6094 25.5031 17.2281C25.5016 17.5258 25.3825 17.8107 25.1718 18.0209C24.961 18.231 24.6758 18.3493 24.3781 18.35V18.35Z" fill="#329DCC"/>
</svg>
