<svg width="13" height="14" viewBox="0 0 13 14" fill="none" xmlns="http://www.w3.org/2000/svg">
<path d="M8.5297 9.56874L9.5797 8.51874C9.72113 8.37907 9.90005 8.28347 10.0948 8.24353C10.2895 8.20359 10.4916 8.22103 10.6766 8.29374L11.9563 8.80468C12.1432 8.88056 12.3035 9.01008 12.4169 9.17691C12.5304 9.34375 12.5919 9.54043 12.5938 9.74218V12.0859C12.5927 12.2232 12.5638 12.3588 12.509 12.4846C12.4541 12.6104 12.3743 12.7238 12.2745 12.8179C12.1746 12.9121 12.0567 12.985 11.9279 13.0325C11.7991 13.0799 11.6621 13.1007 11.525 13.0937C2.55783 12.5359 0.748454 4.94218 0.406267 2.03593C0.390382 1.89321 0.404896 1.74875 0.448852 1.61204C0.492808 1.47533 0.565212 1.34949 0.661298 1.24277C0.757385 1.13606 0.874978 1.0509 1.00634 0.992894C1.1377 0.93489 1.27986 0.905357 1.42345 0.906239H3.68752C3.88955 0.906837 4.08679 0.967864 4.25386 1.08147C4.42093 1.19508 4.55019 1.35607 4.62502 1.54374L5.13595 2.82343C5.21107 3.00768 5.23024 3.20998 5.19105 3.40506C5.15187 3.60014 5.05608 3.77935 4.91564 3.9203L3.86564 4.9703C3.86564 4.9703 4.47033 9.06249 8.5297 9.56874Z" fill="white"/>
</svg>
