<svg width="12" height="10" viewBox="0 0 12 10" fill="none" xmlns="http://www.w3.org/2000/svg">
<path d="M5.72743 4.99992L0.171875 2.18959V1.5277C0.171875 1.33238 0.240596 1.16782 0.378038 1.03399C0.51548 0.900165 0.678241 0.833252 0.866319 0.833252H10.5885C10.7766 0.833252 10.9394 0.900165 11.0768 1.03399C11.2143 1.16782 11.283 1.33238 11.283 1.5277V2.18959L5.72743 4.99992ZM5.38021 5.69436H6.07465L11.283 2.99254V8.47214C11.283 8.66022 11.2143 8.82298 11.0768 8.96042C10.9394 9.09786 10.7766 9.16659 10.5885 9.16659H0.866319C0.678241 9.16659 0.51548 9.09786 0.378038 8.96042C0.240596 8.82298 0.171875 8.66022 0.171875 8.47214V2.99254L5.38021 5.69436Z" fill="white"/>
</svg>
